<svg id="レイヤー_1" data-name="レイヤー 1" xmlns="http://www.w3.org/2000/svg" viewBox="0 0 468 464.5"><title>bon</title><path d="M127.5,135.5c-26,40-59,70-104,94.5L17,220c38-29.5,71.5-63.5,97.5-117H63l-35,3L22,83l41,3h63V60.5c0-19-1.5-28-7-40l2.5-3c44,8,53.5,11,53.5,18,0,5.5-4.5,8-23,13V86h42.5l19-25h7l29,30v12H152v15.5c43,9,75.5,33.5,75.5,53,0,11.5-6,18-13.5,18-7,0-11-2.5-16.5-12.5-9-16-24.5-34-45.5-47.5V152l3,77.5-5,5-26.5,1ZM179,314c0,93.5-40,145-146.5,168L28,471c88.5-29,118.5-79.5,118.5-156.5V290c0-22-1.5-34.5-6.5-49l3-3a411.58,411.58,0,0,1,44.5,22.5H299L314.5,241h7c30,23,33,26.5,33,32s-3,8-19.5,13.5V420c0,19.5,5.5,23.5,39.5,23.5,42,0,47.5-2.5,54.5-10.5s11-17.5,18.5-47l12,1.5c-1,23.5-1,31.5-1,38,0,6,2.5,8.5,9.5,11.5s11,7,11,13c0,8.5-6,13.5-15.5,16-14,4-40,6.5-89,6.5-57.5,0-72-8-72-42.5l1-65V277.5H179Zm25-5.5c54.5,21.5,78,51,78,67.5,0,14.5-6.5,22.5-16.5,22.5-9,0-13.5-4.5-21-21.5-7.5-17.5-23.5-40-48-59ZM372.5,103c27.5,40.5,59,66,112.5,90.5L481.5,204c-17,0-23,8-29.5,21.5-42-33.5-69.5-68-94-122.5l5,129-5,5-26.5,1,4-105c-29,38.5-67,74.5-123,98.5l-6.5-10c47.5-28,85-66,115-118.5H296.5l-35,3-6-23,41,3H334V60.5c0-18.5-1.5-27.5-7-39l2.5-3C373.5,26,383,29,383,35.5c0,5.5-4.5,8-23,13V86h56l21-27h7l31,32v12Z" transform="translate(-17 -17.5)"/></svg>