<?xml version="1.0" encoding="utf-8"?>
<!-- Generator: Adobe Illustrator 15.0.0, SVG Export Plug-In . SVG Version: 6.00 Build 0)  -->
<!DOCTYPE svg PUBLIC "-//W3C//DTD SVG 1.1//EN" "http://www.w3.org/Graphics/SVG/1.1/DTD/svg11.dtd">
<svg version="1.1" xmlns="http://www.w3.org/2000/svg" xmlns:xlink="http://www.w3.org/1999/xlink" x="0px" y="0px"
	 width="425.197px" height="306.925px" viewBox="0 0 425.197 306.925" enable-background="new 0 0 425.197 306.925"
	 xml:space="preserve">
<g id="レイヤー_1" display="none">
	<g display="inline">
		<circle fill="none" stroke="#000000" stroke-width="7.4341" stroke-miterlimit="10" cx="58.453" cy="-234.949" r="91.068"/>
		<circle fill="none" stroke="#000000" stroke-width="29.7366" stroke-miterlimit="10" cx="58.453" cy="-234.949" r="59.373"/>
	</g>
	<g display="inline">
		<circle fill="none" stroke="#C9CACA" stroke-width="12.0584" stroke-miterlimit="10" cx="797.411" cy="433.104" r="147.716"/>
		<circle fill="none" stroke="#C9CACA" stroke-width="25" stroke-miterlimit="10" cx="797.411" cy="433.104" r="59.373"/>
	</g>
	<g display="inline">
		<path d="M164.35-190.146v-84.27h47.273c14.49,0,24.15,8.838,24.15,21.684c0,7.604-3.494,11.818-5.652,13.668
			c-2.055,1.85-3.7,2.466-6.372,3.391c10.174,2.775,15.107,10.277,15.107,20.862c0,15.621-11.818,24.664-25.281,24.664H164.35z
			 M187.679-240.4h18.292c3.494,0,6.269-3.597,6.269-8.838c0-2.363-1.028-7.296-6.269-7.296h-18.292V-240.4z M187.679-208.028
			h17.368c5.036,0,9.968-2.774,9.968-9.557c0-6.475-4.316-8.53-9.968-8.53h-17.368V-208.028z"/>
		<path d="M406.17-190.146l-33.605-49.637l0.822,49.637h-22.918v-84.27h22.918l33.605,49.637l-0.822-49.637h22.918v84.27H406.17z"/>
	</g>
	<g display="inline">
		<circle fill="none" stroke="#E60012" stroke-width="3.8652" stroke-miterlimit="10" cx="293.184" cy="-234.949" r="47.349"/>
		<circle fill="none" stroke="#000000" stroke-width="15.4608" stroke-miterlimit="10" cx="293.184" cy="-234.949" r="30.871"/>
	</g>
	<g display="inline">
		<circle fill="none" stroke="#000000" stroke-width="16.282" stroke-miterlimit="10" cx="-325.572" cy="111.336" r="158.648"/>
	</g>
	<g display="inline">
		<path fill="none" stroke="#000000" stroke-width="15.461" stroke-miterlimit="10" d="M-137.424,111.336
			c0,103.914-84.233,188.147-188.147,188.147c-103.913,0-188.148-84.233-188.148-188.147c0-103.913,84.235-188.147,188.148-188.147
			C-221.657-76.812-137.424,7.423-137.424,111.336z"/>
	</g>
	<g display="inline">
		<path d="M-455.021,154.799v-84.27h47.273c14.49,0,24.15,8.838,24.15,21.684c0,7.604-3.494,11.818-5.652,13.668
			c-2.055,1.85-3.7,2.466-6.372,3.391c10.174,2.775,15.107,10.277,15.107,20.862c0,15.621-11.818,24.664-25.281,24.664H-455.021z
			 M-431.693,104.545h18.292c3.494,0,6.269-3.597,6.269-8.838c0-2.363-1.028-7.296-6.269-7.296h-18.292V104.545z M-431.693,136.917
			h17.368c5.036,0,9.968-2.774,9.968-9.557c0-6.475-4.316-8.53-9.968-8.53h-17.368V136.917z"/>
		<path d="M-217.313,154.799l-33.604-49.637l0.822,49.637h-22.918v-84.27h22.918l33.604,49.637l-0.822-49.637h22.918v84.27H-217.313
			z"/>
	</g>
	<g display="inline">
		<circle fill="none" stroke="#E60012" stroke-width="3.8652" stroke-miterlimit="10" cx="-328.244" cy="109.996" r="47.349"/>
		<circle fill="none" stroke="#000000" stroke-width="15.4608" stroke-miterlimit="10" cx="-328.244" cy="109.996" r="30.871"/>
	</g>
	<g display="inline">
		<path fill="#3E3A39" d="M670.633,477.906v-84.27h47.273c14.49,0,24.15,8.838,24.15,21.684c0,7.605-3.494,11.818-5.652,13.668
			c-2.055,1.85-3.699,2.467-6.371,3.392c10.174,2.774,15.107,10.276,15.107,20.862c0,15.621-11.818,24.664-25.281,24.664H670.633z
			 M693.962,427.652h18.292c3.494,0,6.27-3.597,6.27-8.838c0-2.363-1.027-7.297-6.27-7.297h-18.292V427.652z M693.962,460.024
			h17.368c5.035,0,9.968-2.774,9.968-9.558c0-6.475-4.315-8.529-9.968-8.529h-17.368V460.024z"/>
		<path fill="#3E3A39" d="M908.342,477.906l-33.605-49.637l0.822,49.637h-22.918v-84.27h22.918l33.605,49.637l-0.822-49.637h22.918
			v84.27H908.342z"/>
	</g>
	<g display="inline">
		<circle fill="none" stroke="#3E3A39" stroke-width="3.8652" stroke-miterlimit="10" cx="797.411" cy="433.104" r="47.349"/>
		<circle fill="none" stroke="#E60012" stroke-width="15.4608" stroke-miterlimit="10" cx="797.411" cy="433.104" r="30.871"/>
	</g>
	<g display="inline">
		<circle fill="none" stroke="#000000" stroke-width="22" stroke-miterlimit="10" cx="-459.548" cy="695.663" r="75.671"/>
		<circle fill="none" stroke="#000000" stroke-width="6" stroke-miterlimit="10" cx="-459.547" cy="695.663" r="49.334"/>
	</g>
	<g display="inline">
		<path d="M-357.138,740.467v-84.27h47.273c14.49,0,24.15,8.838,24.15,21.684c0,7.605-3.494,11.818-5.652,13.668
			c-2.055,1.85-3.7,2.467-6.372,3.392c10.174,2.774,15.107,10.276,15.107,20.862c0,15.621-11.818,24.664-25.281,24.664H-357.138z
			 M-333.809,690.213h18.292c3.494,0,6.269-3.597,6.269-8.838c0-2.363-1.028-7.297-6.269-7.297h-18.292V690.213z M-333.809,722.585
			h17.368c5.036,0,9.968-2.774,9.968-9.558c0-6.475-4.316-8.529-9.968-8.529h-17.368V722.585z"/>
		<path d="M-119.43,740.467l-33.604-49.637l0.822,49.637h-22.918v-84.27h22.918l33.604,49.637l-0.822-49.637h22.918v84.27H-119.43z"
			/>
	</g>
	<g display="inline">
		<circle fill="none" stroke="#000000" stroke-width="3.8652" stroke-miterlimit="10" cx="-230.36" cy="695.664" r="47.349"/>
		<circle fill="none" stroke="#E60012" stroke-width="15.4608" stroke-miterlimit="10" cx="-230.36" cy="695.664" r="30.871"/>
	</g>
	<g display="inline">
		<circle fill="none" stroke="#000000" stroke-width="24.9277" stroke-miterlimit="10" cx="-356.566" cy="404.104" r="75.671"/>
		<circle fill="none" stroke="#000000" stroke-width="6" stroke-miterlimit="10" cx="-356.566" cy="404.104" r="49.334"/>
	</g>
	<g display="inline">
		<path d="M-485.313,594.345v-84.27h47.273c14.49,0,24.15,8.838,24.15,21.685c0,7.604-3.494,11.817-5.652,13.668
			c-2.055,1.85-3.7,2.466-6.372,3.391c10.174,2.775,15.107,10.277,15.107,20.862c0,15.62-11.818,24.664-25.281,24.664H-485.313z
			 M-461.985,544.092h18.292c3.494,0,6.269-3.598,6.269-8.839c0-2.363-1.028-7.296-6.269-7.296h-18.292V544.092z M-461.985,576.463
			h17.368c5.036,0,9.968-2.774,9.968-9.557c0-6.475-4.316-8.53-9.968-8.53h-17.368V576.463z"/>
		<path d="M-247.605,594.345l-33.604-49.637l0.822,49.637h-22.918v-84.27h22.918l33.604,49.637l-0.822-49.637h22.918v84.27H-247.605
			z"/>
	</g>
	<g display="inline">
		<circle fill="none" stroke="#000000" stroke-width="3.8652" stroke-miterlimit="10" cx="-358.536" cy="549.542" r="47.349"/>
		<circle fill="none" stroke="#E60012" stroke-width="15.4608" stroke-miterlimit="10" cx="-358.536" cy="549.542" r="30.871"/>
	</g>
	<g display="inline">
		<circle fill="none" stroke="#000000" stroke-width="24.9277" stroke-miterlimit="10" cx="732.556" cy="702.274" r="75.671"/>
		<circle fill="none" stroke="#000000" stroke-width="6" stroke-miterlimit="10" cx="732.556" cy="702.274" r="49.334"/>
	</g>
	<g display="inline">
		<path d="M603.809,892.515v-84.27h47.273c14.49,0,24.15,8.838,24.15,21.685c0,7.604-3.494,11.817-5.652,13.668
			c-2.056,1.85-3.7,2.466-6.372,3.391c10.175,2.775,15.106,10.277,15.106,20.862c0,15.62-11.818,24.664-25.28,24.664H603.809z
			 M627.137,842.262h18.293c3.494,0,6.269-3.598,6.269-8.839c0-2.363-1.028-7.296-6.269-7.296h-18.293V842.262z M627.137,874.633
			h17.367c5.036,0,9.969-2.774,9.969-9.557c0-6.475-4.316-8.53-9.969-8.53h-17.367V874.633z"/>
		<path d="M841.516,892.515l-33.604-49.637l0.822,49.637h-22.918v-84.27h22.918l33.604,49.637l-0.822-49.637h22.918v84.27H841.516z"
			/>
	</g>
	<g display="inline">
		<circle fill="none" stroke="#000000" stroke-width="3.8652" stroke-miterlimit="10" cx="730.586" cy="847.712" r="47.349"/>
		<circle fill="none" stroke="#5C222F" stroke-width="15.4608" stroke-miterlimit="10" cx="730.586" cy="847.712" r="30.871"/>
	</g>
</g>
<g id="レイヤー_2">
	<g>
		<circle fill="none" stroke="#DCDDDD" stroke-width="7.4341" stroke-miterlimit="10" cx="841.214" cy="172.174" r="91.068"/>
		<circle fill="none" stroke="#DCDDDD" stroke-width="25" stroke-miterlimit="10" cx="841.214" cy="172.174" r="59.373"/>
	</g>
	<g>
		<path fill="#595757" d="M716.381,216.975v-84.27h47.273c14.49,0,24.15,8.838,24.15,21.684c0,7.604-3.494,11.818-5.652,13.668
			c-2.055,1.85-3.699,2.466-6.371,3.391c10.174,2.775,15.106,10.277,15.106,20.862c0,15.621-11.818,24.664-25.28,24.664H716.381z
			 M739.709,166.722h18.293c3.494,0,6.27-3.597,6.27-8.838c0-2.363-1.028-7.296-6.27-7.296h-18.293V166.722z M739.709,199.093
			h17.368c5.036,0,9.968-2.774,9.968-9.557c0-6.475-4.315-8.53-9.968-8.53h-17.368V199.093z"/>
		<path fill="#595757" d="M946.929,216.975L915,167.338l0.781,49.637h-21.774v-84.27h21.774l31.929,49.637l-0.781-49.637h21.773
			v84.27H946.929z"/>
	</g>
	<g>
		<circle fill="none" stroke="#595757" stroke-width="3.8652" stroke-miterlimit="10" cx="841.214" cy="172.172" r="47.349"/>
		<circle fill="none" stroke="#000000" stroke-width="15.4608" stroke-miterlimit="10" cx="841.214" cy="172.172" r="30.871"/>
	</g>
	<g>
		<g>
			<path fill="none" stroke="#DCDDDD" stroke-width="11.1068" stroke-miterlimit="10" d="M347.183,153.463
				c0,75.145-60.913,136.058-136.058,136.058S75.067,228.607,75.067,153.463c0-75.146,60.913-136.059,136.058-136.059
				S347.183,78.317,347.183,153.463z"/>
			<path fill="none" stroke="#DCDDDD" stroke-width="37.3504" stroke-miterlimit="10" d="M299.829,153.463
				c0,48.99-39.711,88.704-88.704,88.704s-88.704-39.714-88.704-88.704c0-48.991,39.711-88.705,88.704-88.705
				S299.829,104.472,299.829,153.463z"/>
		</g>
		<g>
			<path fill="#595757" d="M24.622,220.397V94.487h70.633c21.65,0,36.084,13.205,36.084,32.399c0,11.362-5.221,17.658-8.445,20.422
				c-3.071,2.764-5.528,3.685-9.52,5.067c15.202,4.146,22.572,15.355,22.572,31.17c0,23.34-17.658,36.852-37.773,36.852H24.622z
				 M59.478,145.312H86.81c5.221,0,9.367-5.375,9.367-13.206c0-3.531-1.536-10.902-9.367-10.902H59.478V145.312z M59.478,193.679
				h25.95c7.524,0,14.894-4.146,14.894-14.28c0-9.674-6.449-12.745-14.894-12.745h-25.95V193.679z"/>
			<path fill="#595757" d="M369.062,220.397l-47.7-74.164l1.166,74.164h-32.529V94.487h32.529l47.701,74.164l-1.167-74.164h32.53
				v125.91H369.062z"/>
		</g>
		<g>
			<path fill="none" stroke="#595757" stroke-width="5.7747" stroke-miterlimit="10" d="M281.864,153.46
				c0,39.069-31.67,70.741-70.739,70.741c-39.067,0-70.739-31.672-70.739-70.741c0-39.066,31.672-70.737,70.739-70.737
				C250.194,82.723,281.864,114.394,281.864,153.46z"/>
			<path fill="none" stroke="#000000" stroke-width="23.0987" stroke-miterlimit="10" d="M257.247,153.46
				c0,25.471-20.647,46.122-46.122,46.122c-25.474,0-46.122-20.651-46.122-46.122c0-25.469,20.648-46.122,46.122-46.122
				C236.6,107.338,257.247,127.991,257.247,153.46z"/>
		</g>
	</g>
	<g>
		<g>
			<path d="M672.641,48.327v-93.679h52.553c16.107,0,26.847,9.825,26.847,24.105c0,8.454-3.884,13.138-6.284,15.194
				c-2.284,2.056-4.112,2.742-7.082,3.77c11.31,3.084,16.793,11.424,16.793,23.191c0,17.365-13.138,27.418-28.104,27.418H672.641z
				 M698.574-7.538h20.336c3.884,0,6.969-3.999,6.969-9.825c0-2.627-1.143-8.111-6.969-8.111h-20.336V-7.538z M698.574,28.449
				h19.307c5.598,0,11.082-3.084,11.082-10.625c0-7.197-4.799-9.482-11.082-9.482h-19.307V28.449z"/>
			<path d="M936.883,48.327L899.525-6.852l0.914,55.179h-25.477v-93.679h25.477l37.357,55.179l-0.914-55.179h25.476v93.679H936.883z
				"/>
		</g>
		<g>
			<circle fill="none" stroke="#000000" stroke-width="4.2965" stroke-miterlimit="10" cx="813.568" cy="-1.476" r="52.633"/>
			<path fill="none" stroke="#E60012" stroke-width="17.1862" stroke-miterlimit="10" d="M847.883-1.476
				c0,18.951-15.362,34.316-34.315,34.316s-34.316-15.365-34.316-34.316c0-18.949,15.363-34.316,34.316-34.316
				S847.883-20.425,847.883-1.476z"/>
		</g>
	</g>
	<rect y="-59.136" fill="none" width="425.197" height="425.196"/>
	<g>
		<g>
			<path fill="none" stroke="#DCDDDD" stroke-width="11.1068" stroke-miterlimit="10" d="M961.183,515.463
				c0,75.145-60.913,136.058-136.058,136.058s-136.058-60.913-136.058-136.058c0-75.146,60.913-136.059,136.058-136.059
				S961.183,440.317,961.183,515.463z"/>
			<path fill="none" stroke="#DCDDDD" stroke-width="37.3504" stroke-miterlimit="10" d="M913.829,515.463
				c0,48.99-39.711,88.704-88.704,88.704s-88.704-39.714-88.704-88.704c0-48.991,39.711-88.705,88.704-88.705
				S913.829,466.472,913.829,515.463z"/>
		</g>
		<g>
			<path fill="#595757" d="M638.622,582.396v-125.91h70.633c21.65,0,36.084,13.205,36.084,32.399
				c0,11.362-5.221,17.657-8.445,20.422c-3.071,2.764-5.528,3.685-9.521,5.067c15.202,4.146,22.572,15.354,22.572,31.17
				c0,23.34-17.658,36.852-37.773,36.852H638.622z M673.479,507.312h27.331c5.221,0,9.366-5.374,9.366-13.206
				c0-3.531-1.535-10.901-9.366-10.901h-27.331V507.312z M673.479,555.68h25.949c7.523,0,14.895-4.146,14.895-14.28
				c0-9.674-6.449-12.745-14.895-12.745h-25.949V555.68z"/>
			<path fill="#595757" d="M983.062,582.396l-47.7-74.164l1.166,74.164h-32.529v-125.91h32.529l47.701,74.164l-1.167-74.164h32.53
				v125.91H983.062z"/>
		</g>
		<g>
			<path fill="none" stroke="#595757" stroke-width="5.7747" stroke-miterlimit="10" d="M895.864,515.46
				c0,39.069-31.67,70.741-70.739,70.741c-39.067,0-70.739-31.672-70.739-70.741c0-39.066,31.672-70.737,70.739-70.737
				C864.194,444.723,895.864,476.394,895.864,515.46z"/>
			<path fill="none" stroke="#E60012" stroke-width="23.0987" stroke-miterlimit="10" d="M871.247,515.46
				c0,25.471-20.647,46.122-46.122,46.122c-25.474,0-46.122-20.651-46.122-46.122c0-25.469,20.648-46.122,46.122-46.122
				C850.6,469.338,871.247,489.991,871.247,515.46z"/>
		</g>
	</g>
	<rect x="614" y="302.864" fill="none" width="425.197" height="425.196"/>
	<rect fill="none" width="425.197" height="306.925"/>
</g>
</svg>
